<?xml version="1.0" encoding="utf-8"?>
<!-- Generator: Adobe Illustrator 15.0.2, SVG Export Plug-In  -->
<!DOCTYPE svg PUBLIC "-//W3C//DTD SVG 1.1//EN" "http://www.w3.org/Graphics/SVG/1.1/DTD/svg11.dtd" [
	<!ENTITY ns_flows "http://ns.adobe.com/Flows/1.0/">
]>
<svg version="1.1"
	 xmlns="http://www.w3.org/2000/svg" xmlns:xlink="http://www.w3.org/1999/xlink" xmlns:a="http://ns.adobe.com/AdobeSVGViewerExtensions/3.0/"
	 x="0px" y="0px" width="96px" height="96px" viewBox="0 0 96 96" overflow="visible" enable-background="new 0 0 96 96"
	 xml:space="preserve">
<defs>
</defs>
<path fill-rule="evenodd" clip-rule="evenodd" fill="#4D4D4D" d="M47.996,0C21.492,0,0,22.035,0,49.215
	c0,21.746,13.75,40.191,32.828,46.699c2.402,0.453,3.277-1.066,3.277-2.367c0-1.168-0.043-4.262-0.062-8.379
	c-13.359,2.984-16.176-6.598-16.176-6.598c-2.176-5.684-5.32-7.195-5.32-7.195c-4.367-3.047,0.324-2.992,0.324-2.992
	c4.816,0.355,7.348,5.074,7.348,5.074c4.285,7.523,11.234,5.348,13.973,4.086c0.43-3.176,1.676-5.348,3.051-6.578
	c-10.668-1.238-21.867-5.469-21.867-24.328c0-5.367,1.871-9.766,4.938-13.199c-0.488-1.242-2.137-6.254,0.473-13.031
	c0,0,4.031-1.32,13.203,5.051c3.824-1.094,7.938-1.633,12.016-1.656c4.07,0.023,8.188,0.562,12.02,1.656
	c9.156-6.371,13.184-5.051,13.184-5.051c2.613,6.777,0.969,11.789,0.48,13.031c3.07,3.434,4.938,7.832,4.938,13.199
	c0,18.914-11.227,23.078-21.918,24.285c1.711,1.531,3.25,4.531,3.25,9.117c0,6.586-0.051,11.891-0.051,13.508
	c0,1.309,0.852,2.848,3.293,2.363C82.262,89.391,96,70.953,96,49.215C96,22.035,74.512,0,47.996,0z"/>
<path fill-rule="evenodd" clip-rule="evenodd" fill="#FFFFFF" d="M59.664,93.88c0-1.617,0.051-6.922,0.051-13.508
	c0-4.586-1.539-7.586-3.25-9.117c10.691-1.207,21.918-5.371,21.918-24.285c0-5.367-1.867-9.766-4.938-13.199
	c0.488-1.242,2.133-6.254-0.48-13.031c0,0-4.027-1.32-13.184,5.051c-3.832-1.094-7.949-1.633-12.02-1.656
	c-4.078,0.023-8.191,0.562-12.016,1.656c-9.172-6.371-13.203-5.051-13.203-5.051c-2.609,6.777-0.961,11.789-0.473,13.031
	c-3.066,3.434-4.938,7.832-4.938,13.199c0,18.859,11.199,23.09,21.867,24.328c-1.375,1.23-2.621,3.402-3.051,6.578
	c-2.738,1.262-9.688,3.438-13.973-4.086c0,0-2.531-4.719-7.348-5.074c0,0-4.691-0.055-0.324,2.992c0,0,3.145,1.512,5.32,7.195
	c0,0,2.816,9.582,16.176,6.598c0.02,4.117,0.062,7.211,0.062,8.379c0,0.313-0.055,0.64-0.165,0.948
	c3.825,0.982,7.835,1.505,11.968,1.505c4.196,0,8.266-0.542,12.146-1.554C59.715,94.484,59.664,94.178,59.664,93.88z"/>
</svg>
