<?xml version="1.0" encoding="utf-8"?>
<!-- Generator: Adobe Illustrator 15.0.2, SVG Export Plug-In  -->
<!DOCTYPE svg PUBLIC "-//W3C//DTD SVG 1.1//EN" "http://www.w3.org/Graphics/SVG/1.1/DTD/svg11.dtd" [
	<!ENTITY ns_flows "http://ns.adobe.com/Flows/1.0/">
]>
<svg version="1.1"
	 xmlns="http://www.w3.org/2000/svg" xmlns:xlink="http://www.w3.org/1999/xlink" xmlns:a="http://ns.adobe.com/AdobeSVGViewerExtensions/3.0/"
	 x="0px" y="0px" width="96px" height="96px" viewBox="0 0 96 96" overflow="visible" enable-background="new 0 0 96 96"
	 xml:space="preserve">
<defs>
</defs>
<path fill="#4D4D4D" d="M96,48.004C96,74.523,74.512,96,48.002,96C21.491,96,0,74.523,0,48.004C0,21.488,21.491,0,48.002,0
	C74.512,0,96,21.488,96,48.004z"/>
<path fill="#FFFFFF" d="M25.826,39.734c0.695,0.488,2.793,1.941,6.277,4.375c3.496,2.406,6.176,4.277,8.023,5.582
	c0.207,0.141,0.645,0.453,1.305,0.93c0.66,0.48,1.219,0.863,1.652,1.164c0.438,0.297,0.977,0.629,1.59,0.992
	c0.637,0.367,1.215,0.645,1.762,0.832c0.559,0.188,1.066,0.273,1.539,0.273h0.023h0.03c0.477,0,0.98-0.086,1.539-0.273
	c0.551-0.188,1.133-0.465,1.758-0.832c0.617-0.363,1.152-0.695,1.586-0.992c0.441-0.301,0.992-0.684,1.66-1.164
	c0.656-0.484,1.098-0.789,1.301-0.93c1.879-1.305,6.656-4.625,14.34-9.957c1.48-1.039,2.722-2.297,3.726-3.766
	c1-1.469,1.496-3.008,1.496-4.625c0-1.348-0.477-2.5-1.453-3.457c-0.961-0.961-2.108-1.445-3.44-1.445H25.467
	c-1.573,0-2.78,0.535-3.636,1.594c-0.84,1.066-1.262,2.395-1.262,3.992c0,1.273,0.562,2.68,1.676,4.176
	C23.378,37.699,24.564,38.875,25.826,39.734z"/>
<path fill="#FFFFFF" d="M72.375,43.012c-6.687,4.535-11.776,8.051-15.249,10.57c-1.168,0.855-2.105,1.527-2.84,1.996
	c-0.719,0.484-1.68,0.973-2.891,1.473c-1.191,0.504-2.32,0.746-3.367,0.746h-0.03h-0.023c-1.039,0-2.164-0.242-3.375-0.746
	c-1.203-0.5-2.168-0.988-2.883-1.473c-0.727-0.469-1.68-1.141-2.84-1.996c-2.754-2.027-7.828-5.551-15.214-10.57
	c-1.168-0.773-2.195-1.66-3.094-2.664V64.66c0,1.352,0.473,2.504,1.426,3.465c0.969,0.953,2.128,1.438,3.472,1.438H70.54
	c1.351,0,2.499-0.484,3.456-1.438c0.961-0.961,1.438-2.113,1.438-3.465V40.348C74.57,41.332,73.539,42.223,72.375,43.012z"/>
</svg>
