<?xml version="1.0" encoding="utf-8"?>
<!-- Generator: Adobe Illustrator 15.0.2, SVG Export Plug-In  -->
<!DOCTYPE svg PUBLIC "-//W3C//DTD SVG 1.1//EN" "http://www.w3.org/Graphics/SVG/1.1/DTD/svg11.dtd" [
	<!ENTITY ns_flows "http://ns.adobe.com/Flows/1.0/">
]>
<svg version="1.1"
	 xmlns="http://www.w3.org/2000/svg" xmlns:xlink="http://www.w3.org/1999/xlink" xmlns:a="http://ns.adobe.com/AdobeSVGViewerExtensions/3.0/"
	 x="0px" y="0px" width="148px" height="146px" viewBox="-1 0.814 148 146"
	 overflow="visible" enable-background="new -1 0.814 148 146" xml:space="preserve">
<defs>
</defs>
<path fill="#FFDD15" d="M147,122.103C147,135.854,135.853,147,122.102,147H24.897C11.146,147,0,135.854,0,122.103V24.897
	C0,11.146,11.146,0,24.897,0h97.204C135.853,0,147,11.146,147,24.897V122.103z"/>
<path fill="#FFFFFF" d="M37.17,42.5v42.826l17.728,17.728h16.533L48.424,80.048l18.923-19.022h-5.876L37.17,85.326v16.233v1.494
	H25.518c0-20.716,0-41.332,0-62.047L37.17,42.5z"/>
<path fill="#FFFFFF" d="M77.403,60.129l11.354,1.494c4.482-1.594,9.86-2.391,15.238-2.391c11.752,0,23.305,3.685,25.197,10.955
	c0.896,3.486,1.295,7.569,1.295,11.553c0.1,4.084-0.398,8.067-1.295,11.454c-1.793,7.17-13.545,10.855-25.197,10.855
	c-5.278,0-10.558-0.697-14.939-2.191v18.923l-11.652,1.494V81.641V60.129z M103.995,99.867c6.573,0,13.146-3.088,14.143-8.864
	c0.498-2.689,0.696-5.976,0.696-9.263c0-3.286-0.198-6.573-0.696-9.361c-1.096-5.976-7.569-8.964-14.143-8.964
	c-6.673,0-13.146,2.988-14.242,9.063c-0.498,2.688-0.697,5.876-0.697,9.062v0.1V96.68C92.94,98.771,98.418,99.867,103.995,99.867z"
	/>
</svg>
