<?xml version="1.0" encoding="utf-8"?>
<!-- Generator: Adobe Illustrator 15.0.2, SVG Export Plug-In  -->
<!DOCTYPE svg PUBLIC "-//W3C//DTD SVG 1.1//EN" "http://www.w3.org/Graphics/SVG/1.1/DTD/svg11.dtd" [
	<!ENTITY ns_flows "http://ns.adobe.com/Flows/1.0/">
]>
<svg version="1.1"
	 xmlns="http://www.w3.org/2000/svg" xmlns:xlink="http://www.w3.org/1999/xlink" xmlns:a="http://ns.adobe.com/AdobeSVGViewerExtensions/3.0/"
	 x="0px" y="0px" width="903px" height="782px" viewBox="-14.614 -6.966 903 782"
	 overflow="visible" enable-background="new -14.614 -6.966 903 782" xml:space="preserve">
<defs>
</defs>
<linearGradient id="SVGID_1_" gradientUnits="userSpaceOnUse" x1="52.3418" y1="664.1348" x2="2720.4497" y2="664.1348">
	<stop  offset="0" style="stop-color:#333333"/>
	<stop  offset="1" style="stop-color:#FFDD15"/>
</linearGradient>
<path fill="url(#SVGID_1_)" d="M21.963,608.478v80.717l33.413,33.414h31.16l-43.362-43.363l35.666-35.854H67.765l-45.802,45.803
	v30.598v2.816H0c0-39.045,0-77.902,0-116.947L21.963,608.478z"/>
<linearGradient id="SVGID_2_" gradientUnits="userSpaceOnUse" x1="52.3418" y1="681.6855" x2="2720.4497" y2="681.6855">
	<stop  offset="0" style="stop-color:#333333"/>
	<stop  offset="1" style="stop-color:#FFDD15"/>
</linearGradient>
<path fill="url(#SVGID_2_)" d="M113.567,699.519c1.877,10.889,14.454,16.52,26.843,16.52c15.393,0,30.785-4.318,36.229-13.328
	l9.197,5.256c-6.758,10.699-25.717,15.955-44.487,15.955c-22.526,0-45.052-6.568-48.618-20.461
	c-1.689-6.381-2.44-13.891-2.44-21.586c0-7.508,0.751-15.205,2.44-21.775c3.379-13.703,25.341-20.648,47.491-20.648
	c21.963,0,44.488,6.945,47.867,21.023c1.314,5.633,2.253,12.014,2.253,18.584v8.447h-77.901
	C112.629,691.636,112.816,695.765,113.567,699.519z M167.065,664.417c-2.064-11.264-14.453-16.895-26.843-16.895
	c-12.201,0-24.778,5.631-26.655,16.707c-0.751,4.504-1.126,9.572-1.313,14.828h56.126
	C168.38,673.989,167.816,668.921,167.065,664.417z"/>
<linearGradient id="SVGID_3_" gradientUnits="userSpaceOnUse" x1="52.3418" y1="664.1348" x2="2720.4497" y2="664.1348">
	<stop  offset="0" style="stop-color:#333333"/>
	<stop  offset="1" style="stop-color:#FFDD15"/>
</linearGradient>
<path fill="url(#SVGID_3_)" d="M229.196,608.478c0,37.168,0,74.146,0,111.314v2.816h-21.963c0-39.045,0-77.902,0-116.947
	L229.196,608.478z"/>
<linearGradient id="SVGID_4_" gradientUnits="userSpaceOnUse" x1="52.3418" y1="664.1348" x2="2720.4497" y2="664.1348">
	<stop  offset="0" style="stop-color:#333333"/>
	<stop  offset="1" style="stop-color:#FFDD15"/>
</linearGradient>
<path fill="url(#SVGID_4_)" d="M269.554,608.478c0,37.168,0,74.146,0,111.314v2.816h-21.963c0-39.045,0-77.902,0-116.947
	L269.554,608.478z"/>
<linearGradient id="SVGID_5_" gradientUnits="userSpaceOnUse" x1="52.3418" y1="704.0234" x2="2720.4497" y2="704.0234">
	<stop  offset="0" style="stop-color:#333333"/>
	<stop  offset="1" style="stop-color:#FFDD15"/>
</linearGradient>
<path fill="url(#SVGID_5_)" d="M330.935,744.194l-6.757,20.648h-8.636l13.703-42.234h-18.208l-25.904-79.404h23.089l23.464,71.895
	l23.276-71.895h8.823L330.935,744.194z"/>
<linearGradient id="SVGID_6_" gradientUnits="userSpaceOnUse" x1="52.3418" y1="699.4258" x2="2720.4497" y2="699.4258">
	<stop  offset="0" style="stop-color:#333333"/>
	<stop  offset="1" style="stop-color:#FFDD15"/>
</linearGradient>
<path fill="url(#SVGID_6_)" d="M426.855,641.702l21.399,2.816c8.447-3.004,18.584-4.504,28.72-4.504
	c22.15,0,43.926,6.945,47.492,20.648c1.689,6.568,2.44,14.266,2.44,21.773c0.188,7.697-0.751,15.205-2.44,21.588
	c-3.379,13.516-25.529,20.461-47.492,20.461c-9.948,0-19.897-1.314-28.156-4.131v35.666l-21.963,2.816v-76.588V641.702z
	 M476.975,716.601c12.39,0,24.778-5.818,26.655-16.707c0.939-5.068,1.314-11.262,1.314-17.457c0-6.193-0.375-12.389-1.314-17.645
	c-2.064-11.264-14.266-16.895-26.655-16.895c-12.576,0-24.777,5.631-26.843,17.082c-0.938,5.068-1.313,11.076-1.313,17.082v0.188
	v28.346C456.139,714.536,466.463,716.601,476.975,716.601z"/>
<linearGradient id="SVGID_7_" gradientUnits="userSpaceOnUse" x1="52.3418" y1="681.6855" x2="2720.4497" y2="681.6855">
	<stop  offset="0" style="stop-color:#333333"/>
	<stop  offset="1" style="stop-color:#FFDD15"/>
</linearGradient>
<path fill="url(#SVGID_7_)" d="M643.102,722.608l-21.963-2.816c-8.071,2.816-18.021,4.129-27.97,4.129
	c-22.149,0-44.112-6.945-47.679-20.461c-1.689-6.381-2.44-13.891-2.44-21.586c0-7.508,0.751-15.205,2.44-21.775
	c3.379-13.703,25.341-20.648,47.491-20.648s44.301,6.945,47.867,21.023c1.502,5.82,2.253,12.766,2.253,19.711V722.608z
	 M621.139,681.499c0-6.008-0.375-12.014-1.314-17.082c-2.064-11.264-14.266-16.895-26.843-16.895
	c-12.201,0-24.778,5.631-26.655,16.707c-0.938,5.256-1.313,11.449-1.313,17.645s0.375,12.389,1.313,17.645
	c1.877,10.889,14.454,16.52,26.843,16.52c10.324,0,20.648-1.877,27.97-6.008V681.499z"/>
<linearGradient id="SVGID_8_" gradientUnits="userSpaceOnUse" x1="52.3418" y1="681.3115" x2="2720.4497" y2="681.3115">
	<stop  offset="0" style="stop-color:#333333"/>
	<stop  offset="1" style="stop-color:#FFDD15"/>
</linearGradient>
<path fill="url(#SVGID_8_)" d="M681.956,722.608h-21.963v-79.592l18.584,2.441c8.822-3.756,20.085-5.443,31.535-5.443
	c21.963,0,44.113,6.945,47.492,20.459c1.689,6.383,2.44,14.08,2.44,21.588v40.547h-21.963v-40.547
	c0-6.195-0.375-12.389-1.314-17.457c-1.877-10.889-14.266-16.707-26.655-16.707c-10.512,0-20.836,2.064-28.156,6.008v36.604V722.608
	z"/>
<linearGradient id="SVGID_9_" gradientUnits="userSpaceOnUse" x1="52.3418" y1="699.6123" x2="2720.4497" y2="699.6123">
	<stop  offset="0" style="stop-color:#333333"/>
	<stop  offset="1" style="stop-color:#FFDD15"/>
</linearGradient>
<path fill="url(#SVGID_9_)" d="M875.111,739.126c-3.379,13.703-25.529,20.648-47.68,20.648v-7.883
	c12.39,0,24.966-5.633,26.843-16.895c0.751-4.506,1.314-9.762,1.314-15.205c-8.26,2.816-18.208,4.129-27.97,4.129
	c-22.149,0-44.112-6.945-47.679-20.461c-1.689-6.381-2.44-13.891-2.44-21.586c0-7.508,0.751-15.205,2.44-21.775
	c3.379-13.703,25.341-20.648,47.491-20.648s44.301,6.945,47.867,21.023c1.502,6.195,2.253,13.703,2.253,21.025v35.854v2.439
	C877.363,726.55,876.613,733.308,875.111,739.126z M854.274,664.417c-2.064-11.264-14.453-16.895-26.843-16.895
	c-12.201,0-24.778,5.631-26.655,16.707c-0.938,5.256-1.313,11.449-1.313,17.645s0.375,12.389,1.313,17.645
	c1.877,10.889,14.454,16.52,26.843,16.52c10.324,0,20.648-1.877,27.97-6.008v-28.344
	C855.589,675.679,855.214,669.673,854.274,664.417z"/>
<linearGradient id="SVGID_10_" gradientUnits="userSpaceOnUse" x1="255.4111" y1="301.0312" x2="714.4952" y2="301.0312" gradientTransform="matrix(0.9909 -0.1345 0.1345 0.9909 -36.6951 59.0371)">
	<stop  offset="0" style="stop-color:#CCCCCC"/>
	<stop  offset="1" style="stop-color:#FFFFFF"/>
</linearGradient>
<path fill="url(#SVGID_10_)" d="M518.539,75.156c-0.059,0.121-0.107,0.25-0.171,0.371l0.138,0.057l-93.001,157.318
	c-10.792-2.637-27.106-2.716-38.744-1.136c-49.902,6.775-84.881,52.626-78.114,102.466c1.788,13.168,6.381,25.274,13.048,35.909
	l-82.052,57.747c-0.008-0.011-0.009-0.019-0.02-0.028c-0.158,0.116-0.317,0.234-0.479,0.341
	c16.161,21.566,35.869,40.15,58.228,54.887l76.276-71.654c11.541,3.149,23.863,4.12,36.456,2.41
	c9.868-1.34,19.153-4.292,27.643-8.401l87.585,92.849c-0.062,0.033-0.132,0.058-0.188,0.087c0.161,0.136,0.338,0.259,0.495,0.397
	c26.878-12.834,50.708-30.555,70.481-51.923c-0.042-0.044-0.083-0.078-0.125-0.124c-0.026,0.04-0.063,0.074-0.091,0.107
	L482.59,360.78c7.011-15.165,9.982-32.417,7.568-50.207c-1.793-13.207-6.418-25.352-13.075-35.975l113.683-149.095
	c0.023,0.025,0.046,0.049,0.067,0.072c0.111-0.17,0.24-0.331,0.356-0.494C570.403,104.043,545.739,87.052,518.539,75.156z"/>
<path fill="#333333" d="M289.816,321.429c0-61.596,49.906-111.472,111.465-111.472c14.353,0,34.099,2.79,46.734,7.767L586.53,42.132
	C543.309,15.568,492.698,0,438.375,0C281.589,0,154.05,127.546,154.05,284.325c0,50.686,13.472,98.166,36.784,139.406l108.88-56.571
	C293.392,353.167,289.816,337.714,289.816,321.429z"/>
<path fill="#808080" d="M513.551,322.633c0,21.995-6.438,42.435-17.424,59.683l123.094,123.113
	c63.608-52.179,104.28-131.356,104.28-219.861c0-64.207-21.654-123.319-57.661-170.944L503.633,276.822
	C509.945,290.813,513.551,306.31,513.551,322.633z"/>
<linearGradient id="SVGID_11_" gradientUnits="userSpaceOnUse" x1="250.7939" y1="498.1963" x2="525.2842" y2="498.1963">
	<stop  offset="0" style="stop-color:#333333"/>
	<stop  offset="1" style="stop-color:#FFDD15"/>
</linearGradient>
<path fill="url(#SVGID_11_)" d="M525.284,556.231l-90.807-127.1c-10.966,3.588-22.699,5.639-34.865,5.639
	c-15.537,0-30.3-3.203-43.76-8.936l-105.059,75.02c49.905,43.295,114.831,69.703,185.901,69.703
	C467.646,570.558,497.352,565.394,525.284,556.231z"/>
</svg>
